<svg xmlns="http://www.w3.org/2000/svg" viewBox="0 0 796.95 394.63"><defs><style>.cls-1,.cls-4{fill:#333;}.cls-1{opacity:0.9;}.cls-2{fill:#ffad3d;}.cls-3{fill:#88b361;}.cls-5{fill:none;}</style></defs><g id="Layer_2" data-name="Layer 2"><g id="Layer_1-2" data-name="Layer 1"><path class="cls-1" d="M157.08,148.16l-34.82,18.75-18.75-27.86s-24.31,19.69-32.15-4.28c-2.66-8.17,9.25-22.64,24.11-21.43.2-6.63-4.16-17.13,7.64-24.11,14.26-8.44,22.7.81,26.31,4,5.83-4.62,18.84-19.12,33.15-3.42,8.24,9-8.24,26.92-16.87,26.72C147.3,123.58,157.08,148.16,157.08,148.16Z"/><path class="cls-2" d="M170,171a22.7,22.7,0,1,1-45.39,0c0-.12,0-.25,0-.37l35.48-18.37A22.67,22.67,0,0,1,170,171Z"/><path class="cls-2" d="M225.05,196.11l.6,24.71-58.46,1.4s-2.81,25.52-4.62,29.33c22.5.61,54.64,14.87,61.67,32.35,5.83-2.41,19.29.2,21.7,6.83-7,4.62-38.37,24.11-38.37,24.11s-11.85-38.38-49.22-45.41c-5.42,8.24-16.88,28.56-36.36,28.93-10.65.2-20.29-2.61-23.91-4.82-3,3.21-9.84,16.07-24.1,8.84C77.19,295,95.87,262.8,95.87,262.8s14.37,12.07,26.12,11.45c22.9-1.2,23.3-18.48,22.5-29.93s-1.21-36.76-1.21-36.76-3.81-10.45,16.68-10.85S225.05,196.11,225.05,196.11Z"/><path class="cls-2" d="M227.86,196.31l41.38-.2s-10.84,14.66-41,15.87C228.26,202.33,227.86,196.31,227.86,196.31Z"/><polygon class="cls-3" points="307.8 193.63 213.97 193.08 214.01 188.07 307.84 188.62 307.8 193.63"/><path class="cls-3" d="M305.54,185.26h-71a.76.76,0,0,1-.62.34H182.25a.75.75,0,0,1-.73-.74.73.73,0,0,1,.73-.73H217a42.48,42.48,0,0,1,1.66-8.16H187.08a1.75,1.75,0,1,1,0-3.5H219.9a43.65,43.65,0,0,1,3.79-7.39H198.94a1.32,1.32,0,1,1,0-2.63H225.5a43.17,43.17,0,0,1,7.68-8H172.41a1.32,1.32,0,0,1-1.31-1.32,1.3,1.3,0,0,1,1.31-1.31h64.36a44,44,0,0,1,20.37-7.14,4.56,4.56,0,0,1-.95-2.81,4.62,4.62,0,1,1,8.33,2.75A44.48,44.48,0,0,1,305.54,185.26Z"/><path class="cls-4" d="M330,139.24c0-6.54-.22-13.3-4.14-15.26-3.49-1.75-1.75-3.71,1.3-3.71h22.24c2.83,0,5.23,2,7,4.36,14.38-6.1,32.7-5.89,46.65.87,40.76,19.4,36.84,115.54-2.83,135.82-17.23,8.72-44,6.54-64.75,6.32h-8.29c-3.05,0-4.79-2.18-1.3-3.71,3.92-2,4.14-8.72,4.14-15.26Zm53.41,107c21.14-17.22,23.32-89.38,1.53-105.94a21,21,0,0,0-26.17.43v111.4C367.73,252.38,376.89,251.72,383.43,246.27Z"/><path class="cls-4" d="M474.17,224.47a74.36,74.36,0,0,0,.65,10c.87,8.29,2.83,14.61,5.67,18.53,5.67,7.41,17.87,3.49,24.85-10a64.18,64.18,0,0,0,7-25.07h8.5c0,17.66-14.17,48.18-35.32,51.23-12.42,1.53-23.11-1.74-29.43-8.06-20.27-20.06-12.42-69.54.87-79.35,10-7.2,25.29-7,34.67-2a16.43,16.43,0,0,1,8.28,10.69C503.6,205.51,493.13,223.6,474.17,224.47Zm5.88-31.82c-2.83,4.57-4.58,12-5.23,20.27,8.07.22,13.95-7.19,15.48-14.17C492,190.25,485.94,183.05,480.05,192.65Z"/><path class="cls-4" d="M551,184.58c16.69-11.58,47-10.77,61,3.5,17,17.63,17.41,52,.9,70.14-14.36,15.61-44,18-62.65,5.51C523.86,245.83,525.65,202.35,551,184.58Zm47.21,38.5c-.54-47.65-34.65-47.52-38.59-.54C555.27,274.64,598.89,275.18,598.17,223.08Z"/><path class="cls-4" d="M675.64,204.85,694.39,178h8.94l-24.42,34.88L690,241.26c4.14,10.68,6.76,14.61,9.81,12.43,1.53-1.09,3-3.27,4.58-6.33,3.05-6.53,5.45-16.78,5-29.43h8.51c0,10.9-1.31,25.95-7.2,36.85-7.63,13.73-24.85,18.09-35.75,9.81-5.23-3.71-8.5-9.38-14-24l-.44-1.31-20.49,29.21h-8.94l26.16-37.28-16.57-41.85c-2-4.8-.43-11.78,4.8-11.78H667.8c3.05,0,5.66,2,2.83,3.71-3.27,2-.87,8.72,1.74,15.26Z"/><path class="cls-4" d="M323.14,294.26h3.25l4.88,8.43h.08l4.89-8.43h2.64l-6.46,11.05v8h-2.87v-8Z"/><path class="cls-4" d="M339,301.53a7,7,0,1,1-2.09,5A6.84,6.84,0,0,1,339,301.53Zm8.09,1.73A4,4,0,0,0,344,302a4,4,0,0,0-3.11,1.31,5.07,5.07,0,0,0,0,6.55,4,4,0,0,0,3.11,1.31,4,4,0,0,0,3.08-1.31,5.17,5.17,0,0,0,0-6.55Z"/><path class="cls-4" d="M353.85,299.72h2.73v6.76a5.24,5.24,0,0,0,1.06,3.59,3.3,3.3,0,0,0,2.54,1.18,3.76,3.76,0,0,0,3-1.21,5.36,5.36,0,0,0,1-3.56v-6.76h2.46v7.55a6.14,6.14,0,0,1-6.52,6.35c-.31,0-.6,0-.87,0a7.5,7.5,0,0,1-1.08-.18A6.83,6.83,0,0,1,357,313a5.64,5.64,0,0,1-1.16-.73,4.59,4.59,0,0,1-1-1.13,6.28,6.28,0,0,1-.7-1.66,8.7,8.7,0,0,1-.27-2.24Z"/><path class="cls-4" d="M385.16,299.72v2.4h-2.78c-1.36,0-2.05.43-2.05,1.31v.16a1.49,1.49,0,0,0,.63.86,10.19,10.19,0,0,0,1.35.88c.52.3,1,.62,1.57,1a4.66,4.66,0,0,1,1.32,1.37,3.32,3.32,0,0,1,.53,1.84c0,.17,0,.35,0,.55q-.46,3.27-4.59,3.27h-3.05v-2.43h3.22a2.59,2.59,0,0,0,1.43-.36,1.11,1.11,0,0,0,.56-.94,1.13,1.13,0,0,0,0-.25,1.64,1.64,0,0,0-.71-.9,12.83,12.83,0,0,0-1.36-.85,15.92,15.92,0,0,1-1.51-.91,4.46,4.46,0,0,1-1.27-1.29,3.19,3.19,0,0,1-.52-1.8,3.45,3.45,0,0,1,1.32-2.87,5,5,0,0,1,3.18-1Z"/><path class="cls-4" d="M390,307.24a4.59,4.59,0,0,0,1.42,2.77,4,4,0,0,0,2.86,1.11,3.93,3.93,0,0,0,3.36-1.64l1.85,1.85a6.91,6.91,0,0,1-2.33,1.7,7.17,7.17,0,0,1-2.88.59,6.71,6.71,0,0,1-5-2.07,7.16,7.16,0,0,1,0-10,6.68,6.68,0,0,1,5-2.08,6.54,6.54,0,0,1,4.92,2.08,6.93,6.93,0,0,1,2,5c0,.19,0,.42,0,.71l-4.72,0Zm4.28-5.15a4.39,4.39,0,0,0-2.62.78,4,4,0,0,0-1.5,2.14h8.16a4,4,0,0,0-1.46-2.14A4.21,4.21,0,0,0,394.24,302.09Z"/><path class="cls-4" d="M403.9,313.35V292.9h2.72v20.45Z"/><path class="cls-4" d="M412.08,307.24A4.54,4.54,0,0,0,413.5,310a4,4,0,0,0,2.86,1.11,3.91,3.91,0,0,0,3.35-1.64l1.86,1.85a7,7,0,0,1-2.33,1.7,7.17,7.17,0,0,1-2.88.59,6.7,6.7,0,0,1-5-2.07,7.16,7.16,0,0,1,0-10,6.67,6.67,0,0,1,5-2.08,6.55,6.55,0,0,1,4.92,2.08,6.93,6.93,0,0,1,2,5c0,.19,0,.42,0,.71l-4.72,0Zm4.28-5.15a4.39,4.39,0,0,0-2.62.78,3.87,3.87,0,0,0-1.5,2.14h8.15a3.94,3.94,0,0,0-1.45-2.14A4.21,4.21,0,0,0,416.36,302.09Z"/><path class="cls-4" d="M432.56,299.44a6.95,6.95,0,0,1,5.21,2.29l-1.86,1.86a3.93,3.93,0,0,0-3.35-1.64,4,4,0,0,0-3.11,1.31,5.07,5.07,0,0,0,0,6.55,4,4,0,0,0,3.11,1.31,3.93,3.93,0,0,0,3.35-1.64l1.86,1.85a7.11,7.11,0,0,1-2.33,1.7,7.2,7.2,0,0,1-2.88.59,7.09,7.09,0,0,1,0-14.18Z"/><path class="cls-4" d="M439.76,294.29h2.72v5.45h3.71v2.32h-3.71v4.5a4.16,4.16,0,0,0,1.22,3.12,4.32,4.32,0,0,0,3.15,1.19v2.51a7,7,0,0,1-5-1.95,6.41,6.41,0,0,1-2.07-4.87Z"/><path class="cls-4" d="M448.73,310.08H452V313l-1.2,3.59h-1.58l1.45-3.27h-1.94Z"/><path class="cls-4" d="M463.51,299.74h2.73l2.34,10.83h.06l2.86-10.83h3.22l3.22,10.83H478l2-10.83h2.46l-2.73,13.61h-3.49l-3.11-10.8H473l-2.81,10.8h-3.63Z"/><path class="cls-4" d="M486.5,307.24a4.59,4.59,0,0,0,1.42,2.77,4,4,0,0,0,2.86,1.11,3.93,3.93,0,0,0,3.36-1.64l1.85,1.85a6.91,6.91,0,0,1-2.33,1.7,7.17,7.17,0,0,1-2.88.59,6.71,6.71,0,0,1-5-2.07,7.16,7.16,0,0,1,0-10,6.68,6.68,0,0,1,5-2.08,6.57,6.57,0,0,1,4.93,2.08,7,7,0,0,1,2,5c0,.19,0,.42,0,.71l-4.72,0Zm4.28-5.15a4.39,4.39,0,0,0-2.62.78,4,4,0,0,0-1.5,2.14h8.16a4,4,0,0,0-1.46-2.14A4.21,4.21,0,0,0,490.78,302.09Z"/><path class="cls-4" d="M514.89,313.65a6.74,6.74,0,0,1-7.09-7.09,7.52,7.52,0,0,1,1.72-5.1,6.33,6.33,0,0,1,5-2h.05a6.65,6.65,0,0,1,1.7.21,5.08,5.08,0,0,1,1.33.5,7.58,7.58,0,0,1,.91.62,3.85,3.85,0,0,1,.56.5l.16.22V292.9H522v13.66a8,8,0,0,1-.61,3.21,5.76,5.76,0,0,1-1.65,2.23,7.1,7.1,0,0,1-2.27,1.24A7.8,7.8,0,0,1,514.89,313.65Zm0-2.45a4.22,4.22,0,0,0,3.19-1.35,4.88,4.88,0,0,0,0-6.59,4.23,4.23,0,0,0-3.19-1.33,4.08,4.08,0,0,0-3.14,1.33,5.07,5.07,0,0,0,0,6.6A4.09,4.09,0,0,0,514.89,311.2Z"/><path class="cls-4" d="M527.3,307.24a4.59,4.59,0,0,0,1.42,2.77,4,4,0,0,0,2.86,1.11,3.93,3.93,0,0,0,3.36-1.64l1.85,1.85a6.91,6.91,0,0,1-2.33,1.7,7.17,7.17,0,0,1-2.88.59,6.71,6.71,0,0,1-5-2.07,7.16,7.16,0,0,1,0-10,6.68,6.68,0,0,1,5-2.08,6.54,6.54,0,0,1,4.92,2.08,6.93,6.93,0,0,1,2,5c0,.19,0,.42,0,.71l-4.72,0Zm4.28-5.15a4.39,4.39,0,0,0-2.62.78,4,4,0,0,0-1.5,2.14h8.16a4,4,0,0,0-1.46-2.14A4.21,4.21,0,0,0,531.58,302.09Z"/><path class="cls-4" d="M541.24,313.35V292.9H544v20.45Z"/><path class="cls-4" d="M547.23,293.17H550v2.7h-2.73Zm0,6.55H550v13.63h-2.73Z"/><path class="cls-4" d="M559.78,299.44a6.95,6.95,0,0,1,5.21,2.29l-1.86,1.86a3.91,3.91,0,0,0-3.35-1.64,4,4,0,0,0-3.11,1.31,5.07,5.07,0,0,0,0,6.55,4,4,0,0,0,3.11,1.31,3.91,3.91,0,0,0,3.35-1.64l1.86,1.85a7,7,0,0,1-2.33,1.7,7.17,7.17,0,0,1-2.88.59,7.09,7.09,0,0,1,0-14.18Z"/><path class="cls-4" d="M566.9,293.17h2.72v2.7H566.9Zm0,6.55h2.72v13.63H566.9Z"/><path class="cls-4" d="M574.44,301.53a7,7,0,1,1-2.09,5A6.83,6.83,0,0,1,574.44,301.53Zm8.08,1.73a4,4,0,0,0-3.08-1.31,4,4,0,0,0-3.11,1.31,5.07,5.07,0,0,0,0,6.55,4,4,0,0,0,3.11,1.31,4,4,0,0,0,3.08-1.31,5.13,5.13,0,0,0,0-6.55Z"/><path class="cls-4" d="M589.26,299.72H592v6.76a5.24,5.24,0,0,0,1.06,3.59,3.3,3.3,0,0,0,2.54,1.18,3.75,3.75,0,0,0,3-1.21,5.31,5.31,0,0,0,1-3.56v-6.76h2.45v7.55a6.12,6.12,0,0,1-6.51,6.35c-.31,0-.6,0-.88,0a7.63,7.63,0,0,1-1.07-.18,6.83,6.83,0,0,1-1.23-.39,5.64,5.64,0,0,1-1.16-.73,4.59,4.59,0,0,1-1-1.13,6,6,0,0,1-.7-1.66,8.7,8.7,0,0,1-.27-2.24Z"/><path class="cls-4" d="M611.43,299.72v2.4h-2.78c-1.36,0-2,.43-2,1.31v.16a1.49,1.49,0,0,0,.63.86,10.19,10.19,0,0,0,1.35.88c.52.3,1,.62,1.57,1a4.66,4.66,0,0,1,1.32,1.37,3.32,3.32,0,0,1,.53,1.84c0,.17,0,.35,0,.55q-.47,3.27-4.59,3.27h-3v-2.43h3.22a2.59,2.59,0,0,0,1.43-.36,1.11,1.11,0,0,0,.56-.94,1.13,1.13,0,0,0,0-.25,1.64,1.64,0,0,0-.71-.9,12.83,12.83,0,0,0-1.36-.85,15.92,15.92,0,0,1-1.51-.91,4.46,4.46,0,0,1-1.27-1.29,3.19,3.19,0,0,1-.52-1.8,3.45,3.45,0,0,1,1.32-2.87,5,5,0,0,1,3.18-1Z"/><path class="cls-4" d="M614.46,313.35V292.9h2.73v20.45Z"/><path class="cls-4" d="M630.71,299.74l2.59,0v7.55c0,3.48,0,5.82-.08,7a7.18,7.18,0,0,1-.39,2.18,6.3,6.3,0,0,1-1.15,1.95,5.35,5.35,0,0,1-2.15,1.46,9,9,0,0,1-5.12.32,8.81,8.81,0,0,1-1.61-.56q-.64-.33-1.17-.66a7.25,7.25,0,0,1-.76-.54l-.25-.25,1.86-1.85c.14.12.34.27.58.45a9.19,9.19,0,0,0,1.37.69,4.6,4.6,0,0,0,1.84.44h.08a5.2,5.2,0,0,0,3-.89,3.14,3.14,0,0,0,1.18-2.71v-2.13a4.7,4.7,0,0,1-1.68,1,6.1,6.1,0,0,1-2.11.38,8.14,8.14,0,0,1-.88,0q-.4,0-1.08-.18a6.22,6.22,0,0,1-1.22-.38,5.41,5.41,0,0,1-2.18-1.87,5.5,5.5,0,0,1-.7-1.65,8.75,8.75,0,0,1-.27-2.26v-7.53h2.73v6.74a5.28,5.28,0,0,0,1.06,3.6,3.28,3.28,0,0,0,2.54,1.2q3.91,0,3.92-4.8Z"/><path class="cls-4" d="M651,313.65a6.74,6.74,0,0,1-7.09-7.09,7.52,7.52,0,0,1,1.72-5.1,6.31,6.31,0,0,1,5-2h.06a6.65,6.65,0,0,1,1.7.21,5.08,5.08,0,0,1,1.33.5,7.58,7.58,0,0,1,.91.62,3.85,3.85,0,0,1,.56.5l.16.22V292.9h2.73v13.66a8,8,0,0,1-.61,3.21,5.76,5.76,0,0,1-1.65,2.23,7.1,7.1,0,0,1-2.27,1.24A7.85,7.85,0,0,1,651,313.65Zm0-2.45a4.23,4.23,0,0,0,3.19-1.35,4.88,4.88,0,0,0,0-6.59,4.25,4.25,0,0,0-3.19-1.33,4.08,4.08,0,0,0-3.14,1.33,5.07,5.07,0,0,0,0,6.6A4.09,4.09,0,0,0,651,311.2Z"/><path class="cls-4" d="M663.44,307.24a4.54,4.54,0,0,0,1.42,2.77,4,4,0,0,0,2.86,1.11,3.91,3.91,0,0,0,3.35-1.64l1.86,1.85a7,7,0,0,1-2.33,1.7,7.17,7.17,0,0,1-2.88.59,6.7,6.7,0,0,1-5-2.07,7.16,7.16,0,0,1,0-10,6.67,6.67,0,0,1,5-2.08,6.55,6.55,0,0,1,4.92,2.08,6.93,6.93,0,0,1,2,5c0,.19,0,.42,0,.71l-4.72,0Zm4.28-5.15a4.39,4.39,0,0,0-2.62.78,3.87,3.87,0,0,0-1.5,2.14h8.16a4,4,0,0,0-1.46-2.14A4.21,4.21,0,0,0,667.72,302.09Z"/><path class="cls-4" d="M677.37,313.35V292.9h2.73v20.45Z"/><path class="cls-4" d="M683.37,293.17h2.73v2.7h-2.73Zm0,6.55h2.73v13.63h-2.73Z"/><path class="cls-4" d="M688.77,299.74h2.87l4.11,10.83h.09L700,299.74h2.65l-5.18,13.64H694Z"/><path class="cls-4" d="M706.25,307.24a4.64,4.64,0,0,0,1.42,2.77,4,4,0,0,0,2.87,1.11,3.93,3.93,0,0,0,3.35-1.64l1.86,1.85a7,7,0,0,1-2.34,1.7,7.16,7.16,0,0,1-2.87.59,6.74,6.74,0,0,1-5-2.07,7.18,7.18,0,0,1,0-10,6.71,6.71,0,0,1,5-2.08,6.57,6.57,0,0,1,4.92,2.08,6.92,6.92,0,0,1,2,5c0,.19,0,.42,0,.71l-4.72,0Zm4.29-5.15a4.39,4.39,0,0,0-2.62.78,3.87,3.87,0,0,0-1.5,2.14h8.15a4,4,0,0,0-1.46-2.14A4.2,4.2,0,0,0,710.54,302.09Z"/><path class="cls-4" d="M727.28,299.42v3.13a4.57,4.57,0,0,0-3.15,1.09,3.68,3.68,0,0,0-1.21,2.87v6.81h-2.73v-6.81a6.9,6.9,0,0,1,1.95-5.18A7,7,0,0,1,727.28,299.42Z"/><rect class="cls-5" width="796.95" height="394.63"/></g></g></svg>